# xmcd CD database file
#
# Track frame offsets:
#	150
#	14477
#	30831
#	49546
#	67538
#	81798
#	98779
#
# Disc length: 1388 seconds
#
# Revision: 0
# Processed by: cddbd v1.5.2PL0 Copyright (c) Steve Scherf et al.
# Submitted via: CDex 1.75
#
DISCID=40056a07
DTITLE=Sister Hazel - Water
DYEAR=2018
DGENRE=Country
TTITLE0=Roll On Bye
TTITLE1=First Time
TTITLE2=You Won't See Me Again
TTITLE3=Shelter
TTITLE4=I Stayed For The Girl
TTITLE5=More Than I Want To 
TTITLE6=Elements I (Abilene)
EXTD=YEAR: 2018
EXTT0=
EXTT1=
EXTT2=
EXTT3=
EXTT4=
EXTT5=
EXTT6=
PLAYORDER=
